<svg width="21" height="22" viewBox="0 0 21 22" fill="none" xmlns="http://www.w3.org/2000/svg">
<path d="M0.630245 6.91638C0.187523 7.48108 -0.0248032 8.08644 0.00230217 8.70986C0.0294075 9.39653 0.336603 9.93413 0.589586 10.2639C0.295944 10.9958 0.183006 12.1477 1.16332 13.0422C1.88161 13.6973 3.10136 13.9909 4.79093 13.9096C5.97906 13.8554 6.97292 13.634 7.01358 13.625H7.0181C7.24398 13.5843 7.48341 13.5346 7.72736 13.4804C7.74543 13.7695 7.69573 14.4878 7.16266 16.1051C6.5302 18.0296 6.56634 19.5024 7.28012 20.4872C8.03004 21.5217 9.22719 21.603 9.57957 21.603C9.91838 21.603 10.2301 21.463 10.4515 21.2055C10.9529 20.6227 10.8942 19.5475 10.8309 19.0506C11.4273 17.4514 13.0988 13.5301 14.5128 12.4414C14.5399 12.4233 14.5625 12.4007 14.585 12.3781C15.0007 11.9399 15.2807 11.4656 15.4705 11.05C15.737 11.1945 16.0397 11.2758 16.365 11.2758H19.1207C20.1597 11.2758 21 10.4311 21 9.39653L21 2.05547C21 1.01643 20.1552 0.176161 19.1207 0.176161H16.365C15.9629 0.176161 15.5879 0.302652 15.2807 0.519495L14.2191 0.393003C14.0565 0.370417 11.1652 0.00449371 8.19719 0.063221C7.65959 0.0225639 7.15363 -2.47955e-05 6.6838 -2.47955e-05C5.87515 -2.47955e-05 5.17041 0.063221 4.58312 0.189713C3.20075 0.483356 2.25657 1.07064 1.77771 1.9335C1.41179 2.59306 1.41179 3.24811 1.47051 3.66373C0.571516 4.47689 0.413403 5.37589 0.445024 6.00835C0.463097 6.37428 0.544411 6.68599 0.630245 6.91638ZM19.1207 1.39591C19.4866 1.39591 19.7803 1.69407 19.7803 2.05547L19.7803 9.40105C19.7803 9.76698 19.4821 10.0606 19.1207 10.0606H16.365C15.999 10.0606 15.7054 9.76246 15.7054 9.40105L15.7054 2.05999C15.7054 1.69407 16.0036 1.40042 16.365 1.40042H19.1207V1.39591ZM1.78675 7.44494C1.97648 7.24617 2.01262 6.94349 1.86806 6.70858C1.86806 6.70406 1.68284 6.38783 1.66025 5.95414C1.62863 5.36234 1.91324 4.8383 2.50956 4.39106C2.72188 4.22843 2.80772 3.94834 2.71737 3.69535C2.71737 3.69084 2.52311 3.09451 2.83934 2.52982C3.14202 1.98771 3.81514 1.5992 4.83611 1.38235C5.65379 1.20617 6.76511 1.17455 8.12942 1.28297C8.14749 1.28297 8.17008 1.28297 8.19267 1.28297C11.0975 1.21972 14.0339 1.5992 14.0655 1.60371H14.07L14.5263 1.65792C14.4992 1.78442 14.4857 1.91994 14.4857 2.05547L14.4857 9.40105C14.4857 9.59531 14.5173 9.78505 14.5715 9.96123C14.4902 10.2639 14.2643 10.937 13.7312 11.5108C11.7028 13.119 9.71961 18.5446 9.63378 18.7795C9.59764 18.8744 9.5886 18.9783 9.60667 19.0822C9.68347 19.5882 9.65637 20.2071 9.54794 20.3923C9.30851 20.3878 8.6625 20.32 8.27399 19.7824C7.81319 19.1455 7.83126 18.007 8.3282 16.4982C9.08715 14.1987 9.1504 12.988 8.54956 12.4549C8.2514 12.1884 7.85385 12.1748 7.56472 12.2787C7.28915 12.342 7.02713 12.3962 6.77867 12.4369C6.7606 12.4414 6.73801 12.4459 6.71994 12.4504C5.33304 12.7531 2.84838 12.9383 1.98552 12.1523C1.25367 11.4837 1.77319 10.5982 1.83192 10.5033C1.99907 10.2504 1.94938 9.92057 1.7235 9.71728C1.71898 9.71276 1.24464 9.26552 1.22205 8.66469C1.20398 8.26262 1.39371 7.85152 1.78675 7.44494Z" fill="#E5E5E5"/>
</svg>
