<svg width="21" height="22" viewBox="0 0 21 22" fill="none" xmlns="http://www.w3.org/2000/svg">
<path d="M20.3698 14.6866C20.8125 14.1219 21.0248 13.5166 20.9977 12.8932C20.9706 12.2065 20.6634 11.6689 20.4104 11.3391C20.7041 10.6073 20.817 9.45529 19.8367 8.56081C19.1184 7.90576 17.8986 7.61212 16.2091 7.69343C15.0209 7.74764 14.0271 7.96901 13.9864 7.97804H13.9819C13.756 8.0187 13.5166 8.06839 13.2726 8.1226C13.2546 7.83348 13.3043 7.11518 13.8373 5.49789C14.4698 3.5734 14.4337 2.10067 13.7199 1.11584C12.97 0.0813164 11.7728 0 11.4204 0C11.0816 0 10.7699 0.140045 10.5485 0.397547C10.0471 0.980314 10.1058 2.0555 10.1691 2.55243C9.57275 4.15165 7.90124 8.07291 6.48724 9.16165C6.46013 9.17972 6.43755 9.2023 6.41496 9.22489C5.99934 9.6631 5.71925 10.1374 5.52951 10.5531C5.26298 10.4085 4.9603 10.3272 4.63503 10.3272H1.87931C0.840269 10.3272 0 11.172 0 12.2065V19.5476C0 20.5866 0.844787 21.4269 1.87931 21.4269H4.63503C5.0371 21.4269 5.41206 21.3004 5.71925 21.0835L6.78088 21.21C6.94352 21.2326 9.83477 21.5985 12.8028 21.5398C13.3404 21.5805 13.8464 21.6031 14.3162 21.6031C15.1248 21.6031 15.8296 21.5398 16.4169 21.4133C17.7993 21.1197 18.7434 20.5324 19.2223 19.6695C19.5882 19.01 19.5882 18.3549 19.5295 17.9393C20.4285 17.1261 20.5866 16.2271 20.555 15.5947C20.5369 15.2288 20.4556 14.917 20.3698 14.6866ZM1.87931 20.2071C1.51339 20.2071 1.21975 19.909 1.21975 19.5476V12.202C1.21975 11.8361 1.51791 11.5424 1.87931 11.5424H4.63503C5.00096 11.5424 5.2946 11.8406 5.2946 12.202V19.543C5.2946 19.909 4.99644 20.2026 4.63503 20.2026H1.87931V20.2071ZM19.2133 14.1581C19.0235 14.3569 18.9874 14.6595 19.1319 14.8945C19.1319 14.899 19.3172 15.2152 19.3397 15.6489C19.3714 16.2407 19.0868 16.7647 18.4904 17.212C18.2781 17.3746 18.1923 17.6547 18.2826 17.9077C18.2826 17.9122 18.4769 18.5085 18.1607 19.0732C17.858 19.6153 17.1849 20.0038 16.1639 20.2207C15.3462 20.3969 14.2349 20.4285 12.8706 20.3201C12.8525 20.3201 12.8299 20.3201 12.8073 20.3201C9.90253 20.3833 6.9661 20.0038 6.93448 19.9993H6.92996L6.47369 19.9451C6.50079 19.8186 6.51435 19.6831 6.51435 19.5476V12.202C6.51435 12.0077 6.48272 11.818 6.42851 11.6418C6.50983 11.3391 6.73571 10.666 7.26878 10.0923C9.29717 8.48401 11.2804 3.0584 11.3662 2.82349C11.4024 2.72862 11.4114 2.62471 11.3933 2.52081C11.3165 2.01484 11.3436 1.39593 11.4521 1.21071C11.6915 1.21523 12.3375 1.28299 12.726 1.82058C13.1868 2.45756 13.1687 3.59599 12.6718 5.10486C11.9129 7.40431 11.8496 8.61502 12.4504 9.14809C12.7486 9.41463 13.1461 9.42818 13.4353 9.32428C13.7108 9.26103 13.9729 9.20682 14.2213 9.16616C14.2394 9.16165 14.262 9.15713 14.2801 9.15261C15.667 8.84993 18.1516 8.66471 19.0145 9.45077C19.7463 10.1194 19.2268 11.0048 19.1681 11.0997C19.0009 11.3527 19.0506 11.6825 19.2765 11.8857C19.281 11.8903 19.7554 12.3375 19.778 12.9383C19.796 13.3404 19.6063 13.7515 19.2133 14.1581Z" fill="#E5E5E5"/>
</svg>
