<svg width="55" height="55" viewBox="0 0 55 55" fill="none" xmlns="http://www.w3.org/2000/svg">
<path d="M53.4891 46.1986L40.8712 33.5798C38.9911 36.5037 36.503 38.9906 33.5791 40.8707L46.198 53.4895C48.2125 55.5036 51.4788 55.5036 53.489 53.4895C55.5036 51.4788 55.5036 48.2125 53.4891 46.1986Z" fill="#F5F5F5"/>
<path d="M41.2501 20.625C41.2501 9.23514 32.0153 0 20.6251 0C9.23521 0 0 9.23514 0 20.625C0 32.0148 9.23521 41.2495 20.6251 41.2495C32.0153 41.2495 41.2501 32.0148 41.2501 20.625ZM20.6251 36.0931C12.0951 36.0931 5.15643 29.1551 5.15643 20.6251C5.15643 12.0951 12.0951 5.1565 20.6251 5.1565C29.155 5.1565 36.0942 12.0951 36.0942 20.6251C36.0942 29.1551 29.155 36.0931 20.6251 36.0931Z" fill="#F5F5F5"/>
<path d="M8.59399 20.625H12.0311C12.0311 15.8865 15.8867 12.0313 20.6251 12.0313V8.59387C13.992 8.59387 8.59399 13.9918 8.59399 20.625Z" fill="#F5F5F5"/>
</svg>
