<svg width="15" height="10" viewBox="0 0 15 10" fill="none" xmlns="http://www.w3.org/2000/svg">
<path d="M1.12973 0.590769L6.27537 4.66667C6.5087 4.85128 6.83024 4.93333 7.14255 4.91795C7.45434 4.93333 7.77588 4.85179 8.00922 4.66667L13.1549 0.590769C13.5672 0.266154 13.4738 0 12.9508 0H7.14306H1.33537C0.811781 0 0.718447 0.266154 1.12973 0.590769Z" fill="#E5E5E5"/>
<path d="M13.5267 1.66618L7.90359 5.93541C7.69333 6.09336 7.41795 6.17028 7.14359 6.16669C6.86872 6.17028 6.59333 6.09284 6.38308 5.93541L0.758974 1.66618C0.341538 1.34977 0 1.51951 0 2.0431V9.04772C0 9.57131 0.428718 10 0.952308 10H7.14256H13.3333C13.8569 10 14.2856 9.57131 14.2856 9.04772V2.0431C14.2856 1.51951 13.9441 1.34977 13.5267 1.66618Z" fill="#E5E5E5"/>
</svg>
