<svg width="25" height="14" viewBox="0 0 25 14" fill="none" xmlns="http://www.w3.org/2000/svg">
<path opacity="0.7" d="M24.8674 12.6435C24.8371 12.5795 24.8089 12.5264 24.7827 12.4838C24.349 11.7171 23.5201 10.7759 22.2966 9.66014L22.2707 9.63459L22.2578 9.62206L22.2447 9.60922H22.2316C21.6763 9.08965 21.3246 8.7403 21.1774 8.56144C20.9079 8.22073 20.8476 7.87586 20.9948 7.52642C21.0989 7.26241 21.4897 6.70485 22.1663 5.85298C22.5222 5.40152 22.8041 5.03968 23.0123 4.76708C24.5136 2.80801 25.1645 1.55614 24.9648 1.01098L24.8873 0.883578C24.8352 0.80688 24.7007 0.736714 24.484 0.672725C24.2668 0.608869 23.9892 0.598309 23.6507 0.640865L19.9021 0.666281C19.8413 0.64516 19.7546 0.647129 19.6416 0.672725C19.5288 0.698321 19.4724 0.711164 19.4724 0.711164L19.4071 0.743158L19.3553 0.781597C19.3119 0.807014 19.2642 0.851717 19.2121 0.915617C19.1602 0.979294 19.1169 1.05402 19.0822 1.13918C18.6741 2.16977 18.2101 3.12796 17.6893 4.0137C17.3682 4.54186 17.0733 4.99959 16.804 5.38715C16.5351 5.77458 16.3095 6.06003 16.1274 6.243C15.945 6.42616 15.7804 6.57289 15.6326 6.68373C15.4851 6.79461 15.3724 6.84146 15.2944 6.82432C15.2162 6.80719 15.1426 6.79018 15.0729 6.77318C14.9515 6.69648 14.8538 6.59217 14.7802 6.46017C14.7062 6.32816 14.6565 6.16201 14.6304 5.96185C14.6045 5.76156 14.5892 5.58928 14.5848 5.44443C14.5808 5.29976 14.5826 5.09513 14.5914 4.83111C14.6005 4.56697 14.6045 4.38824 14.6045 4.29454C14.6045 3.97083 14.611 3.61952 14.6239 3.2405C14.637 2.86148 14.6476 2.56118 14.6565 2.33995C14.6653 2.11849 14.6694 1.88419 14.6694 1.63718C14.6694 1.39017 14.6541 1.19646 14.6239 1.05586C14.5939 0.915438 14.548 0.779136 14.4875 0.646995C14.4267 0.514988 14.3376 0.412873 14.2207 0.340381C14.1036 0.267979 13.958 0.210523 13.7847 0.167833C13.3247 0.0656732 12.739 0.0104095 12.0273 0.00181783C10.4133 -0.0151864 9.37629 0.0871074 8.91637 0.308565C8.73415 0.402133 8.56925 0.529978 8.42181 0.691698C8.26557 0.879147 8.24378 0.981442 8.35657 0.998267C8.8773 1.07483 9.24595 1.25798 9.46291 1.54755L9.5411 1.70099C9.60192 1.8117 9.66264 2.00769 9.72342 2.28871C9.7841 2.56973 9.82326 2.88059 9.84049 3.22112C9.8838 3.84299 9.8838 4.37531 9.84049 4.81814C9.79705 5.26114 9.75601 5.60602 9.71685 5.85302C9.67769 6.10003 9.61915 6.30019 9.5411 6.45345C9.46291 6.60676 9.41089 6.70046 9.38482 6.73447C9.35878 6.76848 9.33708 6.78991 9.31985 6.79833C9.20706 6.84075 9.08975 6.86236 8.96835 6.86236C8.84676 6.86236 8.69932 6.80267 8.5258 6.68337C8.35233 6.56407 8.17229 6.4002 7.98569 6.1915C7.79908 5.98275 7.58864 5.69104 7.35426 5.31632C7.12006 4.9416 6.87706 4.49873 6.6254 3.9877L6.41719 3.6171C6.28703 3.37868 6.10923 3.03153 5.8836 2.57595C5.65783 2.12019 5.45828 1.67933 5.28481 1.25346C5.21547 1.07461 5.11129 0.938439 4.97247 0.844737L4.90732 0.806298C4.86401 0.772289 4.79449 0.736177 4.69911 0.697694C4.6036 0.659256 4.50394 0.631691 4.39972 0.614731L0.833213 0.640148C0.468762 0.640148 0.221479 0.721187 0.0912723 0.88304L0.0391623 0.959604C0.0131301 1.00225 0 1.07036 0 1.1641C0 1.25781 0.0260322 1.37281 0.0781422 1.50898C0.598786 2.71001 1.16498 3.86832 1.77671 4.98406C2.38844 6.09981 2.92003 6.99857 3.37115 7.67955C3.82236 8.36102 4.28228 9.00418 4.7509 9.60873C5.21953 10.2135 5.52972 10.6011 5.68149 10.7713C5.83345 10.9419 5.9528 11.0694 6.03956 11.1546L6.36503 11.4612C6.57329 11.6656 6.87911 11.9105 7.28264 12.1957C7.68625 12.4812 8.13308 12.7622 8.62336 13.0392C9.11373 13.3158 9.68421 13.5415 10.3351 13.7161C10.9859 13.8908 11.6193 13.961 12.2355 13.9271H13.7324C14.036 13.9014 14.266 13.8077 14.4223 13.646L14.4741 13.5819C14.509 13.5311 14.5416 13.4521 14.5717 13.3459C14.6021 13.2394 14.6172 13.1221 14.6172 12.9945C14.6084 12.6284 14.6368 12.2984 14.7017 12.0045C14.7666 11.7108 14.8405 11.4894 14.9232 11.3402C15.0059 11.1912 15.0991 11.0655 15.2029 10.9635C15.307 10.8614 15.3811 10.7995 15.4246 10.7782C15.4678 10.7567 15.5023 10.7422 15.5284 10.7335C15.7366 10.6654 15.9817 10.7313 16.264 10.9317C16.5461 11.1318 16.8106 11.379 17.0581 11.6727C17.3054 11.9667 17.6026 12.2965 17.9496 12.6627C18.2969 13.029 18.6005 13.3013 18.8608 13.4804L19.121 13.6337C19.2948 13.736 19.5204 13.8297 19.7982 13.9149C20.0754 14 20.3183 14.0213 20.5269 13.9787L23.8589 13.9277C24.1885 13.9277 24.445 13.8742 24.6269 13.7679C24.8091 13.6614 24.9174 13.5441 24.9523 13.4166C24.9872 13.2888 24.989 13.144 24.959 12.982C24.9281 12.8204 24.8977 12.7074 24.8674 12.6435Z" fill="#E5E5E5"/>
</svg>
